<svg xmlns="http://www.w3.org/2000/svg" width="512px" height="416px" viewBox="0 0 512 416">
  <style>
    #dough{fill:#332}
    @media (prefers-color-scheme:dark){#dough{fill:#ffe}}
  </style>
  <path id="dough" d="M437.02 74.981C388.667 26.629 324.38 0 256 0S123.333 26.628 74.98 74.98C26.628 123.333 0 187.62 0 256c0 44.985 11.858 89.263 34.294 128.047C45.695 403.756 66.923 416 89.692 416H336c8.837 0 16-7.164 16-16 0-8.838-7.163-16-16-16H89.692a32 32 0 0 1-27.699-15.977C42.372 334.104 32 295.367 32 256c0-59.833 23.3-116.084 65.608-158.392C139.916 55.3 196.167 32 256 32c123.711 0 224 100.288 224 224 0 39.369-10.372 78.106-29.993 112.024A32.003 32.003 0 0 1 422.308 384H400c-8.837 0-16 7.163-16 16s7.163 16 16 16h22.308c22.767 0 43.994-12.242 55.398-31.952C500.142 345.266 512 300.987 512 256c0-68.381-26.629-132.668-74.98-181.019z"/>
</svg>
