<?xml version="1.0" standalone="no"?>
<!DOCTYPE svg PUBLIC "-//W3C//DTD SVG 20010904//EN"
 "http://www.w3.org/TR/2001/REC-SVG-20010904/DTD/svg10.dtd">
<svg version="1.0" xmlns="http://www.w3.org/2000/svg"
 width="1024.000000pt" height="1024.000000pt" viewBox="0 0 1024.000000 1024.000000"
 preserveAspectRatio="xMidYMid meet">
<metadata>
Created by potrace 1.11, written by Peter Selinger 2001-2013
</metadata>
<g transform="translate(0.000000,1024.000000) scale(0.100000,-0.100000)"
fill="#000000" stroke="none">
<path d="M4829 9276 c-2 -2 -49 -7 -104 -10 -55 -3 -116 -8 -135 -11 -19 -3
-57 -7 -83 -10 -45 -5 -130 -16 -222 -30 -22 -4 -85 -15 -140 -26 -55 -10
-109 -21 -120 -23 -11 -2 -47 -11 -81 -20 -33 -8 -69 -17 -80 -19 -10 -2 -39
-9 -64 -16 -25 -7 -52 -15 -60 -16 -8 -2 -46 -13 -84 -25 -38 -12 -76 -23 -85
-25 -25 -5 -216 -73 -316 -112 -150 -59 -213 -87 -415 -186 -91 -45 -205 -105
-254 -134 -49 -29 -90 -53 -93 -53 -18 0 -453 -299 -453 -312 0 -4 -5 -8 -10
-8 -8 0 -191 -143 -236 -185 -6 -5 -47 -41 -90 -80 -146 -129 -397 -388 -500
-515 -16 -19 -31 -37 -34 -40 -23 -23 -130 -162 -130 -170 0 -5 -4 -10 -8 -10
-4 0 -28 -28 -52 -62 -24 -35 -47 -64 -52 -66 -4 -2 -8 -8 -8 -13 0 -9 -36
-65 -50 -79 -10 -10 -100 -150 -100 -156 0 -3 -11 -20 -25 -38 -14 -18 -25
-35 -25 -38 0 -3 -17 -35 -38 -69 -22 -35 -67 -118 -101 -184 -34 -66 -67
-125 -73 -132 -6 -7 -8 -13 -5 -13 3 0 -10 -32 -29 -72 -36 -74 -114 -255
-118 -273 -1 -5 -5 -16 -10 -23 -10 -16 -105 -288 -112 -318 -2 -12 -11 -41
-20 -65 -8 -24 -17 -52 -19 -63 -3 -10 -11 -42 -19 -70 -20 -69 -84 -352 -90
-396 -2 -19 -7 -46 -10 -60 -8 -34 -15 -77 -21 -125 -3 -22 -9 -71 -15 -110
-43 -312 -49 -852 -14 -1180 2 -22 4 -47 5 -55 1 -15 12 -96 23 -172 3 -21 9
-55 12 -75 3 -21 12 -72 20 -113 9 -41 17 -88 20 -105 2 -16 22 -100 44 -185
22 -85 42 -164 44 -175 4 -22 93 -298 106 -330 16 -39 75 -190 76 -195 2 -9
16 -42 64 -150 69 -153 151 -316 226 -450 29 -53 89 -143 105 -160 8 -8 26
-31 40 -50 82 -110 259 -249 409 -321 167 -81 196 -91 375 -124 57 -11 503
-13 2320 -12 l2250 2 59 30 c105 53 179 170 179 285 0 152 -124 295 -273 316
-25 4 -1035 8 -2245 9 -1210 1 -2207 4 -2215 7 -8 3 -28 8 -45 12 -159 40
-303 157 -399 324 -36 63 -160 301 -162 312 0 3 -13 32 -28 65 -15 33 -33 74
-40 90 -36 84 -51 120 -52 125 0 3 -4 14 -9 25 -16 40 -43 110 -43 115 0 3 -5
17 -11 32 -8 22 -41 127 -46 148 -1 3 -8 25 -15 50 -7 25 -14 47 -15 50 -1 3
-5 19 -9 35 -4 17 -14 53 -21 80 -14 50 -47 200 -61 283 -2 12 -5 32 -8 45 -2
12 -7 45 -11 72 -3 28 -9 58 -11 67 -3 10 -7 41 -10 70 -2 29 -7 76 -10 103
-26 248 -25 696 3 930 3 28 6 60 6 73 1 12 5 22 10 22 4 0 6 4 2 9 -3 6 -1 38
4 73 6 35 13 80 17 102 3 21 8 48 10 60 3 11 7 32 10 46 16 85 37 181 60 265
3 11 7 27 9 35 2 8 4 15 5 15 1 0 3 7 5 16 1 9 11 43 21 75 9 33 18 65 20 72
1 8 6 21 10 30 4 9 8 22 10 27 6 24 66 194 83 235 62 148 136 312 143 316 4 3
8 14 8 24 0 10 3 20 8 22 4 2 19 28 35 58 70 141 144 266 250 425 56 84 164
234 177 245 3 3 19 23 35 45 129 173 450 505 620 640 20 17 47 39 59 51 11 11
41 36 66 55 25 18 50 37 55 42 6 4 35 26 65 48 30 21 61 44 69 50 38 33 315
209 327 209 4 0 15 6 23 14 9 7 54 33 101 57 47 24 87 47 88 52 2 4 7 7 12 7
4 0 50 20 102 44 161 75 189 87 302 131 102 39 214 78 226 80 3 0 10 3 16 7 6
4 21 9 35 12 13 3 56 15 94 26 39 12 79 23 90 26 11 3 25 6 30 8 6 1 19 5 30
9 11 3 31 8 45 11 14 3 36 8 50 11 24 6 151 32 198 41 43 8 76 13 121 20 25 3
57 8 71 10 24 4 62 9 160 18 25 3 45 5 45 6 0 6 232 14 410 14 178 0 410 -8
410 -14 0 -1 20 -3 45 -5 128 -11 199 -20 250 -31 13 -3 40 -8 60 -11 60 -8
64 -9 105 -17 22 -4 54 -12 70 -16 17 -5 46 -11 65 -14 76 -12 356 -93 510
-148 186 -67 552 -230 590 -263 8 -8 17 -13 20 -12 4 1 70 -35 155 -86 17 -9
38 -20 48 -23 9 -4 17 -10 17 -15 0 -5 7 -9 15 -9 8 0 15 -4 15 -10 0 -5 5
-10 10 -10 6 0 58 -33 117 -72 58 -40 120 -83 137 -94 17 -12 37 -29 45 -38 7
-9 19 -16 26 -16 8 0 15 -4 17 -8 2 -4 21 -21 43 -37 21 -17 53 -42 70 -56 16
-15 68 -60 115 -100 105 -92 313 -298 405 -403 39 -44 76 -85 83 -92 6 -7 12
-15 12 -19 0 -3 12 -17 26 -30 15 -14 23 -25 18 -25 -5 0 -4 -4 3 -8 6 -4 38
-43 72 -87 33 -44 65 -85 71 -92 5 -7 10 -16 10 -22 0 -5 4 -11 8 -13 12 -4
150 -217 211 -323 28 -49 56 -97 61 -105 40 -64 232 -475 244 -525 2 -5 8 -23
14 -38 7 -16 12 -31 12 -34 0 -3 6 -19 14 -36 18 -40 77 -228 111 -352 53
-193 101 -445 120 -625 3 -25 7 -61 10 -81 19 -142 26 -572 13 -759 -10 -131
-17 -208 -24 -255 -3 -22 -7 -56 -10 -75 -3 -19 -7 -46 -9 -60 -3 -14 -7 -40
-10 -57 -3 -18 -8 -48 -11 -65 -3 -18 -8 -42 -10 -53 -1 -11 -10 -51 -19 -90
-9 -38 -18 -81 -21 -93 -2 -13 -11 -48 -19 -78 -8 -30 -22 -80 -30 -112 -9
-31 -18 -64 -22 -72 -3 -8 -7 -20 -8 -26 -13 -58 -170 -473 -184 -484 -3 -3
-7 -12 -9 -20 -6 -27 -167 -345 -184 -364 -10 -11 -18 -25 -18 -30 0 -6 -11
-24 -25 -40 -14 -16 -25 -32 -25 -36 0 -11 -102 -107 -143 -135 -56 -37 -126
-71 -177 -86 -25 -7 -52 -15 -60 -17 -8 -3 -283 -6 -610 -7 -327 -1 -619 -5
-649 -9 -104 -13 -204 -92 -250 -198 -11 -25 -18 -48 -15 -50 2 -2 0 -18 -5
-35 -10 -35 10 -139 37 -188 27 -48 93 -109 147 -136 l50 -24 655 0 c360 0
675 3 700 7 64 9 181 36 205 47 11 5 46 19 78 30 263 94 509 312 664 588 47
82 156 292 159 303 0 3 19 45 42 94 45 95 125 291 161 396 13 36 27 74 31 85
18 42 109 351 116 395 3 14 9 39 14 55 5 17 11 44 13 62 3 17 7 36 10 40 3 5
8 28 12 53 4 25 8 47 11 51 2 3 6 26 9 50 3 24 7 51 10 59 2 8 7 33 10 55 3
23 7 50 9 60 2 11 7 45 11 75 3 30 9 69 11 85 3 17 7 53 9 80 2 28 7 93 12
145 15 183 8 788 -11 900 -3 14 -7 52 -10 85 -4 33 -8 71 -11 85 -2 14 -6 46
-9 72 -3 26 -8 58 -11 70 -2 13 -6 37 -9 53 -2 17 -7 37 -10 45 -3 8 -8 33
-10 55 -5 41 -13 80 -16 80 -1 0 -4 14 -6 30 -5 32 -71 300 -80 325 -3 8 -5
16 -5 17 0 2 -6 21 -14 44 -9 23 -17 51 -19 63 -3 12 -23 73 -46 136 -22 63
-48 135 -57 160 -8 25 -18 50 -22 55 -4 6 -16 33 -26 60 -10 28 -30 75 -44
105 -13 30 -25 57 -26 60 0 3 -11 24 -23 48 -12 23 -19 42 -15 42 5 0 3 4 -2
8 -8 6 -95 169 -149 279 -6 13 -14 23 -18 23 -5 0 -8 6 -8 13 0 7 -11 29 -25
48 -13 20 -21 39 -18 43 4 3 2 6 -4 6 -5 0 -15 11 -21 25 -7 14 -16 31 -22 38
-5 7 -43 64 -85 127 -41 63 -78 120 -82 125 -5 6 -19 26 -33 45 -13 19 -27 37
-30 40 -3 3 -32 41 -65 84 -33 43 -64 84 -70 90 -6 6 -24 29 -40 51 -17 22
-41 51 -55 65 -14 14 -47 52 -75 85 -42 51 -336 347 -400 404 -16 14 -131 113
-181 156 -29 25 -218 169 -285 218 -13 9 -76 51 -139 92 -63 41 -120 79 -125
83 -53 42 -458 256 -630 332 -37 17 -100 43 -105 44 -3 1 -16 8 -30 16 -14 7
-25 12 -25 11 0 -2 -43 12 -75 26 -8 3 -19 7 -25 9 -45 14 -233 81 -243 87 -6
5 -12 6 -12 3 0 -3 -31 6 -69 19 -38 13 -72 21 -75 17 -3 -3 -6 -1 -6 4 0 5
-8 10 -17 11 -10 0 -83 17 -163 38 -80 20 -156 38 -170 40 -14 1 -34 5 -45 8
-11 3 -38 9 -60 12 -22 4 -49 9 -60 11 -38 6 -80 13 -155 23 -41 6 -93 14
-115 17 -39 6 -58 8 -190 20 -69 6 -711 15 -716 10z"/>
</g>
</svg>
